# xmcd CD database file
#
# Track frame offsets:
#	150
#	13872
#	30572
#	43318
#	59287
#	73052
#	89734
#	103699
#	121304
#	140031
#	154527
#	168919
#
# Disc length: 2483 seconds
#
# Revision: 0
# Processed by: cddbd v1.5.2PL0 Copyright (c) Steve Scherf et al.
# Submitted via: CDex 1.51
#
DISCID=a809b10c
DTITLE=Caroline Henderson - Keeper Of The Flame
DYEAR=2010
DGENRE=Jazz
TTITLE0=Caravan
TTITLE1=Keeper Of The Flame
TTITLE2=It Hurts Me Too
TTITLE3=Get Out Of Town
TTITLE4=Nature Boy
TTITLE5=Evolution
TTITLE6=Ring Them Bells
TTITLE7=The First Time Ever I Saw Your Face
TTITLE8=Yesterday Is Here
TTITLE9=This Is Love
TTITLE10=Goodbye
TTITLE11=For All We Know
EXTD=YEAR: 2010
EXTT0=
EXTT1=
EXTT2=
EXTT3=
EXTT4=
EXTT5=
EXTT6=
EXTT7=
EXTT8=
EXTT9=
EXTT10=
EXTT11=
PLAYORDER=
